<svg xmlns="http://www.w3.org/2000/svg" width="1600" height="900" viewBox="0 0 1600 900" role="img" aria-labelledby="title desc">
  <title id="title">Futures Trading MACD Strategy</title>
  <desc id="desc">Editorial hero image for futures MACD strategy guide.</desc>
  <rect width="1600" height="900" fill="#f5efe3"/>
  <rect x="104" y="110" width="1392" height="680" rx="40" fill="#132442"/>
  <g stroke="#2f5ca8" stroke-width="2" opacity="0.28">
    <path d="M104 250 H1496"/><path d="M104 390 H1496"/><path d="M104 530 H1496"/><path d="M104 670 H1496"/>
  </g>
  <g transform="translate(168 168)" font-family="Atkinson, Arial, sans-serif">
    <text x="0" y="0" font-size="30" fill="#9dc0ff" letter-spacing="6" font-weight="700">MACD PLAYBOOK</text>
    <text x="0" y="118" font-size="94" fill="#ffffff" font-weight="700">Futures Trading</text>
    <text x="0" y="214" font-size="94" fill="#ffffff" font-weight="700">with signal</text>
    <text x="0" y="310" font-size="94" fill="#ffffff" font-weight="700">discipline</text>
    <text x="0" y="408" font-size="34" fill="#c9daf7">NQ, ES, momentum structure, and automation-aware execution.</text>
  </g>
  <g transform="translate(960 170)">
    <rect x="0" y="0" width="420" height="520" rx="28" fill="#f8fbff"/>
    <g font-family="Atkinson, Arial, sans-serif" fill="#14213d">
      <text x="42" y="86" font-size="28" letter-spacing="4" font-weight="700">MACD STACK</text>
      <text x="42" y="170" font-size="42" font-weight="700">Trend</text>
      <text x="42" y="240" font-size="42" font-weight="700">Crossover</text>
      <text x="42" y="310" font-size="42" font-weight="700">Divergence</text>
      <text x="42" y="380" font-size="42" font-weight="700">Risk stop</text>
    </g>
    <g stroke="#0f7bff" stroke-width="8" fill="none">
      <path d="M52 468 C120 434, 184 500, 246 438 S360 360, 372 310"/>
      <path d="M52 498 C122 540, 198 474, 262 498 S352 470, 372 430" stroke="#ff6b57"/>
    </g>
  </g>
</svg>
